<svg width="85" height="85" viewBox="0 0 85 85" fill="none" xmlns="http://www.w3.org/2000/svg">
<g clip-path="url(#clip0_323_24857)">
<path d="M327.838 -1137.49H-1472.16V3420.51H327.838V-1137.49Z" fill="#414143"/>
<path d="M84.8384 0.505127H0.838379V84.5051H84.8384V0.505127Z" fill="#A1B6E9"/>
<path fill-rule="evenodd" clip-rule="evenodd" d="M42.8384 42.7652C37.7353 42.7652 33.5984 38.6283 33.5984 33.5252C33.5984 28.422 37.7353 24.2852 42.8384 24.2852C47.9415 24.2852 52.0784 28.422 52.0784 33.5252C52.0784 38.6283 47.9415 42.7652 42.8384 42.7652ZM38.6384 46.5452H47.0384C54.4611 46.5452 60.4784 52.5624 60.4784 59.9852H25.1984C25.1984 52.5624 31.2157 46.5452 38.6384 46.5452Z" fill="white" fill-opacity="0.45"/>
</g>
<defs>
<clipPath id="clip0_323_24857">
<rect width="84" height="84" fill="white" transform="translate(0.838379 0.505127)"/>
</clipPath>
</defs>
</svg>
