<svg width="85" height="85" viewBox="0 0 85 85" fill="none" xmlns="http://www.w3.org/2000/svg">
<g clip-path="url(#clip0_323_24864)">
<path d="M513.554 -1137.49H-1286.45V3420.51H513.554V-1137.49Z" fill="#414143"/>
<path d="M84.5542 0.505127H0.554199V84.5051H84.5542V0.505127Z" fill="#8FCBDD"/>
<path fill-rule="evenodd" clip-rule="evenodd" d="M42.5541 42.7652C37.451 42.7652 33.3141 38.6283 33.3141 33.5252C33.3141 28.422 37.451 24.2852 42.5541 24.2852C47.6572 24.2852 51.7941 28.422 51.7941 33.5252C51.7941 38.6283 47.6572 42.7652 42.5541 42.7652ZM38.3541 46.5452H46.7541C54.1768 46.5452 60.1941 52.5624 60.1941 59.9852H24.9141C24.9141 52.5624 30.9314 46.5452 38.3541 46.5452Z" fill="white" fill-opacity="0.45"/>
</g>
<defs>
<clipPath id="clip0_323_24864">
<rect width="84" height="84" fill="white" transform="translate(0.554199 0.505127)"/>
</clipPath>
</defs>
</svg>
