<svg width="85" height="85" viewBox="0 0 85 85" fill="none" xmlns="http://www.w3.org/2000/svg">
<g clip-path="url(#clip0_323_24871)">
<path d="M400.123 -1037.49H-1399.88V3520.51H400.123V-1037.49Z" fill="#414143"/>
<path d="M84.1226 0.505127H0.122559V84.5051H84.1226V0.505127Z" fill="#94BFE7"/>
<path fill-rule="evenodd" clip-rule="evenodd" d="M42.1225 42.7652C37.0194 42.7652 32.8825 38.6283 32.8825 33.5252C32.8825 28.422 37.0194 24.2852 42.1225 24.2852C47.2257 24.2852 51.3625 28.422 51.3625 33.5252C51.3625 38.6283 47.2257 42.7652 42.1225 42.7652ZM37.9225 46.5452H46.3225C53.7453 46.5452 59.7625 52.5624 59.7625 59.9852H24.4825C24.4825 52.5624 30.4998 46.5452 37.9225 46.5452Z" fill="white" fill-opacity="0.45"/>
</g>
<defs>
<clipPath id="clip0_323_24871">
<rect width="84" height="84" fill="white" transform="translate(0.122559 0.505127)"/>
</clipPath>
</defs>
</svg>
